<mxfile host="app.diagrams.net" agent="Mozilla/5.0 (Windows NT 10.0; Win64; x64) AppleWebKit/537.36 (KHTML, like Gecko) Chrome/135.0.0.0 Safari/537.36" version="26.2.6">
  <diagram name="Page-1" id="CdP7fTqK_1SCh9FUiYEG">
    <mxGraphModel dx="816" dy="425" grid="1" gridSize="10" guides="1" tooltips="1" connect="1" arrows="1" fold="1" page="1" pageScale="1" pageWidth="850" pageHeight="1100" math="0" shadow="0">
      <root>
        <mxCell id="0" />
        <mxCell id="1" parent="0" />
        <mxCell id="EMn23QtK4XMqaDpXs1iE-21" style="edgeStyle=orthogonalEdgeStyle;rounded=0;orthogonalLoop=1;jettySize=auto;html=1;exitX=0;exitY=0.5;exitDx=0;exitDy=0;entryX=1;entryY=0.5;entryDx=0;entryDy=0;curved=1;dashed=1;" edge="1" parent="1" source="EMn23QtK4XMqaDpXs1iE-12" target="EMn23QtK4XMqaDpXs1iE-2">
          <mxGeometry relative="1" as="geometry">
            <Array as="points">
              <mxPoint x="353" y="220" />
              <mxPoint x="353" y="115" />
            </Array>
          </mxGeometry>
        </mxCell>
        <mxCell id="EMn23QtK4XMqaDpXs1iE-12" value="" style="rounded=0;whiteSpace=wrap;html=1;dashed=1;" vertex="1" parent="1">
          <mxGeometry x="425" y="100" width="180" height="240" as="geometry" />
        </mxCell>
        <mxCell id="EMn23QtK4XMqaDpXs1iE-5" style="edgeStyle=orthogonalEdgeStyle;rounded=0;orthogonalLoop=1;jettySize=auto;html=1;exitX=0.5;exitY=1;exitDx=0;exitDy=0;entryX=0.5;entryY=0;entryDx=0;entryDy=0;" edge="1" parent="1" source="EMn23QtK4XMqaDpXs1iE-1" target="EMn23QtK4XMqaDpXs1iE-2">
          <mxGeometry relative="1" as="geometry" />
        </mxCell>
        <mxCell id="EMn23QtK4XMqaDpXs1iE-1" value="输入层" style="rounded=0;whiteSpace=wrap;html=1;fontFamily=SimSun;fontSize=20;" vertex="1" parent="1">
          <mxGeometry x="160" y="50" width="120" height="30" as="geometry" />
        </mxCell>
        <mxCell id="EMn23QtK4XMqaDpXs1iE-6" style="edgeStyle=orthogonalEdgeStyle;rounded=0;orthogonalLoop=1;jettySize=auto;html=1;exitX=0.5;exitY=1;exitDx=0;exitDy=0;entryX=0.5;entryY=0;entryDx=0;entryDy=0;" edge="1" parent="1" source="EMn23QtK4XMqaDpXs1iE-2" target="EMn23QtK4XMqaDpXs1iE-3">
          <mxGeometry relative="1" as="geometry" />
        </mxCell>
        <mxCell id="EMn23QtK4XMqaDpXs1iE-2" value="线性处理层" style="rounded=0;whiteSpace=wrap;html=1;fontFamily=SimSun;fontSize=20;" vertex="1" parent="1">
          <mxGeometry x="160" y="100" width="120" height="30" as="geometry" />
        </mxCell>
        <mxCell id="EMn23QtK4XMqaDpXs1iE-7" style="edgeStyle=orthogonalEdgeStyle;rounded=0;orthogonalLoop=1;jettySize=auto;html=1;exitX=0.5;exitY=1;exitDx=0;exitDy=0;entryX=0.5;entryY=0;entryDx=0;entryDy=0;" edge="1" parent="1" source="EMn23QtK4XMqaDpXs1iE-3" target="EMn23QtK4XMqaDpXs1iE-4">
          <mxGeometry relative="1" as="geometry" />
        </mxCell>
        <mxCell id="EMn23QtK4XMqaDpXs1iE-3" value="线性处理层" style="rounded=0;whiteSpace=wrap;html=1;fontFamily=SimSun;fontSize=20;" vertex="1" parent="1">
          <mxGeometry x="160" y="150" width="120" height="30" as="geometry" />
        </mxCell>
        <mxCell id="EMn23QtK4XMqaDpXs1iE-9" style="edgeStyle=orthogonalEdgeStyle;rounded=0;orthogonalLoop=1;jettySize=auto;html=1;exitX=0.5;exitY=1;exitDx=0;exitDy=0;entryX=0.5;entryY=0;entryDx=0;entryDy=0;" edge="1" parent="1" source="EMn23QtK4XMqaDpXs1iE-4" target="EMn23QtK4XMqaDpXs1iE-8">
          <mxGeometry relative="1" as="geometry" />
        </mxCell>
        <mxCell id="EMn23QtK4XMqaDpXs1iE-4" value="Linear(64,1)" style="rounded=0;whiteSpace=wrap;html=1;fontFamily=Times New Roman;fontSize=20;" vertex="1" parent="1">
          <mxGeometry x="160" y="200" width="120" height="30" as="geometry" />
        </mxCell>
        <mxCell id="EMn23QtK4XMqaDpXs1iE-11" style="edgeStyle=orthogonalEdgeStyle;rounded=0;orthogonalLoop=1;jettySize=auto;html=1;exitX=0.5;exitY=1;exitDx=0;exitDy=0;entryX=0.5;entryY=0;entryDx=0;entryDy=0;" edge="1" parent="1" source="EMn23QtK4XMqaDpXs1iE-8" target="EMn23QtK4XMqaDpXs1iE-10">
          <mxGeometry relative="1" as="geometry" />
        </mxCell>
        <mxCell id="EMn23QtK4XMqaDpXs1iE-8" value="sigmoid" style="rounded=0;whiteSpace=wrap;html=1;fontFamily=Times New Roman;fontSize=20;" vertex="1" parent="1">
          <mxGeometry x="160" y="250" width="120" height="30" as="geometry" />
        </mxCell>
        <mxCell id="EMn23QtK4XMqaDpXs1iE-10" value="关系分数" style="rounded=0;whiteSpace=wrap;html=1;fontFamily=SimSun;fontSize=20;" vertex="1" parent="1">
          <mxGeometry x="160" y="300" width="120" height="30" as="geometry" />
        </mxCell>
        <mxCell id="EMn23QtK4XMqaDpXs1iE-13" value="线性处理层" style="text;html=1;align=center;verticalAlign=middle;whiteSpace=wrap;rounded=0;fontFamily=SimSun;fontSize=20;" vertex="1" parent="1">
          <mxGeometry x="460" y="100" width="120" height="30" as="geometry" />
        </mxCell>
        <mxCell id="EMn23QtK4XMqaDpXs1iE-16" style="edgeStyle=orthogonalEdgeStyle;rounded=0;orthogonalLoop=1;jettySize=auto;html=1;exitX=0.5;exitY=1;exitDx=0;exitDy=0;entryX=0.5;entryY=0;entryDx=0;entryDy=0;" edge="1" parent="1" source="EMn23QtK4XMqaDpXs1iE-14" target="EMn23QtK4XMqaDpXs1iE-15">
          <mxGeometry relative="1" as="geometry" />
        </mxCell>
        <mxCell id="EMn23QtK4XMqaDpXs1iE-14" value="&lt;font face=&quot;Times New Roman&quot;&gt;Linear(256,256)&lt;/font&gt;" style="rounded=0;whiteSpace=wrap;html=1;fontFamily=SimSun;fontSize=20;" vertex="1" parent="1">
          <mxGeometry x="450" y="140" width="140" height="30" as="geometry" />
        </mxCell>
        <mxCell id="EMn23QtK4XMqaDpXs1iE-18" style="edgeStyle=orthogonalEdgeStyle;rounded=0;orthogonalLoop=1;jettySize=auto;html=1;exitX=0.5;exitY=1;exitDx=0;exitDy=0;entryX=0.5;entryY=0;entryDx=0;entryDy=0;" edge="1" parent="1" source="EMn23QtK4XMqaDpXs1iE-15" target="EMn23QtK4XMqaDpXs1iE-17">
          <mxGeometry relative="1" as="geometry" />
        </mxCell>
        <mxCell id="EMn23QtK4XMqaDpXs1iE-15" value="&lt;font face=&quot;Times New Roman&quot;&gt;Leak ReLU&lt;/font&gt;" style="rounded=0;whiteSpace=wrap;html=1;fontFamily=SimSun;fontSize=20;" vertex="1" parent="1">
          <mxGeometry x="450" y="190" width="140" height="30" as="geometry" />
        </mxCell>
        <mxCell id="EMn23QtK4XMqaDpXs1iE-20" style="edgeStyle=orthogonalEdgeStyle;rounded=0;orthogonalLoop=1;jettySize=auto;html=1;exitX=0.5;exitY=1;exitDx=0;exitDy=0;entryX=0.5;entryY=0;entryDx=0;entryDy=0;" edge="1" parent="1" source="EMn23QtK4XMqaDpXs1iE-17" target="EMn23QtK4XMqaDpXs1iE-19">
          <mxGeometry relative="1" as="geometry" />
        </mxCell>
        <mxCell id="EMn23QtK4XMqaDpXs1iE-17" value="&lt;font face=&quot;Times New Roman&quot;&gt;BN&lt;/font&gt;" style="rounded=0;whiteSpace=wrap;html=1;fontFamily=SimSun;fontSize=20;" vertex="1" parent="1">
          <mxGeometry x="450" y="240" width="140" height="30" as="geometry" />
        </mxCell>
        <mxCell id="EMn23QtK4XMqaDpXs1iE-19" value="&lt;font face=&quot;Times New Roman&quot;&gt;Dropout(0.3)&lt;/font&gt;" style="rounded=0;whiteSpace=wrap;html=1;fontFamily=SimSun;fontSize=20;" vertex="1" parent="1">
          <mxGeometry x="450" y="290" width="140" height="30" as="geometry" />
        </mxCell>
      </root>
    </mxGraphModel>
  </diagram>
</mxfile>
